<?xml version="1.0" encoding="UTF-8"?>
<svg xmlns="http://www.w3.org/2000/svg" xmlns:xlink="http://www.w3.org/1999/xlink" width="29px" height="41px" viewBox="0 0 29 40" version="1.1">
<g id="surface1">
<path style=" stroke:none;fill-rule:evenodd;fill:rgb(0%,30.196078%,89.803922%);fill-opacity:1;" d="M 0 3.078125 L 0 27.753906 C 0 28.214844 0.105469 28.671875 0.308594 29.085938 C 0.511719 29.5 0.808594 29.867188 1.175781 30.15625 L 13.03125 39.492188 C 13.449219 39.820312 13.964844 40 14.5 40 C 15.035156 40 15.550781 39.820312 15.96875 39.492188 L 27.824219 30.15625 C 28.191406 29.867188 28.488281 29.5 28.691406 29.085938 C 28.894531 28.671875 29 28.214844 29 27.753906 L 29 3.078125 C 29 2.261719 28.667969 1.476562 28.082031 0.902344 C 27.492188 0.324219 26.695312 0 25.863281 0 L 3.136719 0 C 2.304688 0 1.507812 0.324219 0.917969 0.902344 C 0.332031 1.476562 0 2.261719 0 3.078125 Z M 0 3.078125 "/>
<path style=" stroke:none;fill-rule:nonzero;fill:rgb(100%,100%,100%);fill-opacity:1;" d="M 22.898438 14.21875 L 22.898438 8.828125 C 22.898438 8.113281 22.613281 7.429688 22.109375 6.921875 C 21.605469 6.417969 20.921875 6.132812 20.210938 6.132812 L 8.785156 6.132812 C 8.074219 6.132812 7.390625 6.417969 6.886719 6.921875 C 6.382812 7.429688 6.097656 8.113281 6.097656 8.828125 L 6.097656 24.472656 C 6.097656 24.875 6.1875 25.273438 6.363281 25.640625 C 6.539062 26.003906 6.792969 26.324219 7.105469 26.574219 L 11.265625 29.925781 C 11.316406 29.964844 11.375 29.988281 11.4375 29.996094 C 11.5 30.003906 11.566406 29.996094 11.621094 29.96875 C 11.679688 29.941406 11.726562 29.894531 11.761719 29.84375 C 11.796875 29.789062 11.8125 29.726562 11.8125 29.660156 L 11.8125 18.601562 C 11.8125 18.511719 11.847656 18.425781 11.910156 18.363281 C 11.972656 18.300781 12.058594 18.265625 12.148438 18.265625 L 15.171875 18.265625 C 15.707031 18.265625 16.21875 18.476562 16.597656 18.855469 C 16.976562 19.234375 17.1875 19.75 17.1875 20.285156 L 17.1875 29.660156 C 17.1875 29.726562 17.207031 29.789062 17.242188 29.839844 C 17.273438 29.894531 17.320312 29.9375 17.378906 29.964844 C 17.4375 29.992188 17.5 30.003906 17.5625 29.996094 C 17.625 29.988281 17.683594 29.964844 17.734375 29.925781 L 21.894531 26.574219 C 22.207031 26.324219 22.460938 26.003906 22.636719 25.640625 C 22.8125 25.273438 22.902344 24.875 22.902344 24.472656 L 22.902344 19.613281 C 22.902344 18.898438 22.617188 18.210938 22.113281 17.707031 C 21.609375 17.199219 20.925781 16.917969 20.214844 16.917969 C 20.925781 16.914062 21.609375 16.628906 22.113281 16.125 C 22.613281 15.621094 22.898438 14.933594 22.898438 14.21875 Z M 15.167969 15.570312 L 12.144531 15.570312 C 12.054688 15.570312 11.972656 15.53125 11.90625 15.46875 C 11.84375 15.40625 11.808594 15.320312 11.808594 15.230469 L 11.808594 9.164062 C 11.808594 9.078125 11.84375 8.992188 11.90625 8.929688 C 11.972656 8.863281 12.054688 8.828125 12.144531 8.828125 L 16.847656 8.828125 C 16.9375 8.828125 17.023438 8.863281 17.085938 8.929688 C 17.148438 8.992188 17.183594 9.078125 17.183594 9.164062 L 17.183594 13.546875 C 17.183594 14.082031 16.972656 14.597656 16.59375 14.976562 C 16.21875 15.355469 15.703125 15.570312 15.167969 15.570312 Z M 15.167969 15.570312 "/>
</g>
</svg>
