<svg width="29" height="40" viewBox="0 0 29 40" fill="none" xmlns="http://www.w3.org/2000/svg">
<path fill-rule="evenodd" clip-rule="evenodd" d="M3.09865 0H25.1765C26.8879 0 28.2752 1.38731 28.2752 3.09865V27.3447C28.2752 28.5114 27.7493 29.616 26.8436 30.3515L15.6026 39.4801C14.749 40.1733 13.5262 40.1733 12.6726 39.4801L1.43159 30.3515C0.525904 29.616 0 28.5114 0 27.3447V3.09865C0 1.38731 1.38731 0 3.09865 0Z" fill="#1273EA"/>
<path fill-rule="evenodd" clip-rule="evenodd" d="M21.3032 4.64795C22.5867 4.64795 23.6272 5.68843 23.6272 6.97194V14.4681L23.6265 14.5294C23.5943 16.0582 22.3612 17.2916 20.8325 17.3242L20.7704 17.3248L20.8317 17.3255C22.3605 17.3577 23.5939 18.5908 23.6265 20.1195L23.6272 20.1816V24.8707C23.6272 25.5378 23.3405 26.1727 22.8401 26.6139L17.0023 31.761L17.0024 21.2558C17.0024 19.9723 15.9619 18.9318 14.6784 18.9318H11.2728L11.2727 31.761L5.43498 26.6139C4.93461 26.1727 4.64795 25.5378 4.64795 24.8707V6.97194C4.64795 5.68843 5.68843 4.64795 6.97194 4.64795H21.3032ZM17.0024 7.86181H11.2728V15.0037H14.6784C15.9619 15.0037 17.0024 13.9632 17.0024 12.6797V7.86181Z" fill="white"/>
</svg>
