<svg width="100" height="72" viewBox="0 0 100 72" fill="none" xmlns="http://www.w3.org/2000/svg">
<g clip-path="url(#clip0_18_614)">
<mask id="path-1-outside-1_18_614" maskUnits="userSpaceOnUse" x="1" y="2" width="98" height="77" fill="black">
<rect fill="white" x="1" y="2" width="98" height="77"/>
<path fill-rule="evenodd" clip-rule="evenodd" d="M61.2437 4.25727C57.2078 3.32524 52.5749 4.76807 51.1361 11.1931C51.009 11.7499 50.8411 11.9823 50.7092 12.1033C50.6157 12.1856 50.0642 12.2026 49.9683 12.2026C49.8724 12.2026 49.3232 12.1856 49.2297 12.1033C49.0978 11.9823 48.9275 11.7499 48.8028 11.1931C47.364 4.76807 42.7287 3.32524 38.6928 4.25727C34.5155 5.22562 32.681 8.95859 32.6978 12.0573C32.729 16.6182 35.3668 19.1626 39.8798 20.5546C40.8034 20.8405 42.057 20.9326 43.2253 21.0184L43.4886 21.0378C44.796 21.1353 45.9533 21.2429 46.3545 21.6343C46.851 22.1169 46.8539 22.7664 46.8554 23.0966L46.8556 23.1376V25.1722C34.9345 25.6697 23.7059 28.3024 19.7467 32.5913C12.5108 40.4323 5.02601 67.7332 4 73.1815H11.3745H22.428C23.2584 74.6008 25.5287 76.4761 29.8229 76.3355C30.4664 76.3145 31.0523 76.2674 31.5849 76.1969L31.5848 76.1975C32.1808 76.1185 32.7104 76.0101 33.1799 75.8759C34.9928 75.3582 35.909 74.4554 36.3002 73.3708C36.3228 73.3083 36.3437 73.2452 36.3628 73.1815H63.6384C64.0079 74.4098 65.0028 75.4279 67.1251 75.9566C67.5165 76.0541 67.9462 76.1349 68.4175 76.1974C68.4175 76.1972 68.4174 76.1971 68.4174 76.1969C68.95 76.2674 69.5358 76.3144 70.1793 76.3355C74.4734 76.4761 76.7436 74.6008 77.5741 73.1815H88.8359H96C96 73.1815 90.4057 42.6256 80.6663 32.5913C75.9254 27.7043 64.7091 25.3569 53.0713 25.1082V23.1376L53.0713 23.1127V23.1125V23.1123V23.1121C53.0712 23.0717 53.0712 23.026 53.0721 22.9761C53.0786 22.6249 53.1332 22.0636 53.5749 21.6343C54.0028 21.2168 55.2914 21.1222 56.7046 21.0184L56.7047 21.0184C57.8732 20.9326 59.1269 20.8405 60.0495 20.5546C64.5625 19.1626 67.2004 16.6182 67.2291 12.0573C67.2579 8.95859 65.4234 5.2232 61.2437 4.25727ZM43.52 14.6961C43.0323 15.1881 42.411 15.5231 41.7347 15.6587C41.0584 15.7943 40.3575 15.7244 39.7205 15.4579C39.0836 15.1915 38.5392 14.7403 38.1562 14.1615C37.7731 13.5827 37.5687 12.9023 37.5687 12.2062C37.5687 11.5101 37.7731 10.8297 38.1562 10.2509C38.5392 9.67208 39.0836 9.22092 39.7205 8.95443C40.3575 8.68794 41.0584 8.61808 41.7347 8.7537C42.411 8.88931 43.0323 9.22431 43.52 9.71633C43.8443 10.0431 44.1016 10.4311 44.2772 10.8584C44.4528 11.2856 44.5431 11.7436 44.5431 12.2062C44.5431 12.6687 44.4528 13.1267 44.2772 13.554C44.1016 13.9812 43.8443 14.3693 43.52 14.6961ZM61.3492 14.6961C60.8613 15.1889 60.2396 15.5246 59.5628 15.6607C58.8859 15.7968 58.1842 15.7272 57.5465 15.4606C56.9089 15.1941 56.3638 14.7427 55.9803 14.1634C55.5968 13.5841 55.3921 12.9029 55.3921 12.2062C55.3921 11.5094 55.5968 10.8283 55.9803 10.249C56.3638 9.66973 56.9089 9.21826 57.5465 8.95173C58.1842 8.6852 58.8859 8.61558 59.5628 8.75168C60.2396 8.88778 60.8613 9.22348 61.3492 9.71633C62.003 10.3768 62.3703 11.2724 62.3703 12.2062C62.3703 13.14 62.003 14.0355 61.3492 14.6961ZM33.4137 22.7205C32.9007 22.055 31.3207 21.7002 29.7304 22.3994C28.1401 23.0986 27.5398 24.6497 27.6142 24.8749C27.6886 25.1002 28.2196 25.7942 28.4043 25.7968C28.4593 25.7976 28.5676 25.7087 28.7286 25.5765L28.7287 25.5765C29.1081 25.2651 29.7804 24.7134 30.7384 24.5279C31.4534 24.3896 31.9916 24.4708 32.3985 24.5323C32.7682 24.5881 33.0294 24.6275 33.2162 24.471C33.6087 24.1421 33.6318 23.0105 33.4137 22.7205ZM68.6429 21.4638C67.0526 20.7646 65.4725 21.1194 64.9595 21.7849C64.7415 22.0749 64.7697 23.2194 65.1596 23.5353C65.3439 23.6847 65.6033 23.6465 65.9694 23.5927C66.3779 23.5326 66.9192 23.453 67.6374 23.5923C68.5933 23.7777 69.2649 24.3291 69.6443 24.6405C69.8055 24.7729 69.9139 24.8619 69.969 24.8612C70.1537 24.8586 70.6898 24.1646 70.7616 23.9393C70.8334 23.714 70.2332 22.1629 68.6429 21.4638Z"/>
</mask>
<path d="M51.1361 11.1931L53.086 11.6381L53.0878 11.6301L51.1361 11.1931ZM61.2437 4.25727L61.694 2.30863L61.6937 2.30856L61.2437 4.25727ZM50.7092 12.1033L52.0306 13.6047L52.0462 13.5909L52.0616 13.5768L50.7092 12.1033ZM49.2297 12.1033L47.8774 13.5768L47.8927 13.5909L47.9083 13.6046L49.2297 12.1033ZM48.8028 11.1931L46.8512 11.6301L46.8512 11.6301L48.8028 11.1931ZM38.6928 4.25727L38.2428 2.30856L38.2412 2.30893L38.6928 4.25727ZM32.6978 12.0573L30.6978 12.0681L30.6979 12.071L32.6978 12.0573ZM39.8798 20.5546L40.4714 18.644L40.4693 18.6434L39.8798 20.5546ZM43.2253 21.0184L43.3725 19.0238L43.3718 19.0238L43.2253 21.0184ZM43.4886 21.0378L43.6372 19.0434L43.6358 19.0433L43.4886 21.0378ZM46.3545 21.6343L44.9579 23.0659L44.9604 23.0683L46.3545 21.6343ZM46.8554 23.0966L44.8554 23.1057L44.8554 23.1076L46.8554 23.0966ZM46.8556 23.1376H48.8557L48.8556 23.1266L46.8556 23.1376ZM46.8556 25.1722L46.939 27.1705L48.8556 27.0905V25.1722H46.8556ZM19.7467 32.5913L18.2772 31.2347L18.277 31.2349L19.7467 32.5913ZM4 73.1815L2.03455 72.8114L1.58821 75.1815H4V73.1815ZM22.428 73.1815L24.1542 72.1715L23.575 71.1815H22.428V73.1815ZM29.8229 76.3355L29.7574 74.3366H29.7574L29.8229 76.3355ZM31.5849 76.1969L33.5548 76.543L34.0267 73.8565L31.3226 74.2142L31.5849 76.1969ZM31.5848 76.1975L29.615 75.8515L29.143 78.5385L31.8475 78.1802L31.5848 76.1975ZM33.1799 75.8759L32.6308 73.9527L32.6299 73.953L33.1799 75.8759ZM36.3002 73.3708L34.4193 72.691L34.4189 72.6921L36.3002 73.3708ZM36.3628 73.1815V71.1815H34.8762L34.4477 72.605L36.3628 73.1815ZM63.6384 73.1815L65.5537 72.6054L65.1253 71.1815H63.6384V73.1815ZM67.1251 75.9566L67.6085 74.0159H67.6085L67.1251 75.9566ZM68.4175 76.1974L68.1548 78.18L70.8109 78.532L70.393 75.8854L68.4175 76.1974ZM68.4174 76.1969L68.6797 74.2142L66.0241 73.8629L66.4419 76.5089L68.4174 76.1969ZM70.1793 76.3355L70.1138 78.3344H70.1138L70.1793 76.3355ZM77.5741 73.1815V71.1815H76.4271L75.8479 72.1715L77.5741 73.1815ZM96 73.1815V75.1815H98.3994L97.9673 72.8213L96 73.1815ZM80.6663 32.5913L79.2307 33.9839L79.2311 33.9843L80.6663 32.5913ZM53.0713 25.1082H51.0713V27.0659L53.0286 27.1078L53.0713 25.1082ZM53.0713 23.1376H55.0713V23.1361L53.0713 23.1376ZM53.0713 23.1127H51.0713V23.1143L53.0713 23.1127ZM53.0713 23.1121H55.0713V23.1099L53.0713 23.1121ZM53.0721 22.9761L55.0718 23.0134L55.0718 23.0131L53.0721 22.9761ZM53.5749 21.6343L54.969 23.0683L54.9714 23.0659L53.5749 21.6343ZM56.7046 21.0184L56.8511 23.0131L56.902 23.0093L56.9527 23.003L56.7046 21.0184ZM56.7047 21.0184L56.5582 19.0238L56.5073 19.0275L56.4566 19.0339L56.7047 21.0184ZM60.0495 20.5546L59.46 18.6434L59.4573 18.6442L60.0495 20.5546ZM67.2291 12.0573L65.2292 12.0387L65.2292 12.0447L67.2291 12.0573ZM41.7347 15.6587L41.3415 13.6977L41.7347 15.6587ZM43.52 14.6961L42.1006 13.2871L42.0996 13.2881L43.52 14.6961ZM39.7205 15.4579L40.4925 13.6129L40.4925 13.6129L39.7205 15.4579ZM38.1562 14.1615L36.4883 15.2652L36.4883 15.2652L38.1562 14.1615ZM38.1562 10.2509L36.4883 9.14717L36.4883 9.14717L38.1562 10.2509ZM39.7205 8.95443L40.4925 10.7995L40.4925 10.7995L39.7205 8.95443ZM41.7347 8.7537L42.128 6.79274V6.79274L41.7347 8.7537ZM43.52 9.71633L42.0996 11.1243L42.1006 11.1253L43.52 9.71633ZM44.2772 10.8584L46.1271 10.0983L46.1271 10.0982L44.2772 10.8584ZM44.2772 13.554L46.1271 14.3141L46.1271 14.3141L44.2772 13.554ZM59.5628 15.6607L59.1685 13.6999H59.1685L59.5628 15.6607ZM61.3492 14.6961L62.7706 16.1031V16.1031L61.3492 14.6961ZM57.5465 15.4606L58.3178 13.6153V13.6153L57.5465 15.4606ZM55.9803 14.1634L54.3126 15.2673L54.3126 15.2673L55.9803 14.1634ZM55.9803 10.249L54.3126 9.14503L54.3126 9.14504L55.9803 10.249ZM57.5465 8.95173L58.3178 10.797V10.797L57.5465 8.95173ZM59.5628 8.75168L59.1685 10.7124L59.1685 10.7124L59.5628 8.75168ZM61.3492 9.71633L62.7706 8.30931L62.7706 8.3093L61.3492 9.71633ZM29.7304 22.3994L28.9254 20.5685L29.7304 22.3994ZM33.4137 22.7205L35.0124 21.5187L35.0051 21.509L34.9977 21.4994L33.4137 22.7205ZM27.6142 24.8749L25.7151 25.502L25.7151 25.502L27.6142 24.8749ZM28.4043 25.7968L28.4323 23.797H28.4323L28.4043 25.7968ZM28.7286 25.5765L29.9974 27.1226L30.0734 27.0602L30.1429 26.9907L28.7286 25.5765ZM28.7287 25.5765L27.4599 24.0305L27.3839 24.0928L27.3144 24.1623L28.7287 25.5765ZM30.7384 24.5279L30.3584 22.5644H30.3584L30.7384 24.5279ZM32.3985 24.5323L32.0999 26.5099H32.0999L32.3985 24.5323ZM33.2162 24.471L31.9317 22.938L31.9317 22.938L33.2162 24.471ZM64.9595 21.7849L63.3755 20.5638L63.3681 20.5734L63.3608 20.583L64.9595 21.7849ZM68.6429 21.4638L69.4478 19.6329L69.4478 19.6329L68.6429 21.4638ZM65.1596 23.5353L63.9004 25.0893V25.0893L65.1596 23.5353ZM65.9694 23.5927L66.2604 25.5714L65.9694 23.5927ZM67.6374 23.5923L67.2566 25.5557L67.6374 23.5923ZM69.6443 24.6405L70.9134 23.0948L70.9133 23.0948L69.6443 24.6405ZM69.969 24.8612L69.9409 22.8614L69.969 24.8612ZM70.7616 23.9393L68.8561 23.3318L68.8561 23.3318L70.7616 23.9393ZM53.0878 11.6301C53.709 8.85589 54.9437 7.42159 56.2043 6.70503C57.5092 5.96331 59.1374 5.82349 60.7937 6.20598L61.6937 2.30856C59.3141 1.75902 56.6079 1.87459 54.2277 3.22754C51.8032 4.60563 50.002 7.10523 49.1844 10.756L53.0878 11.6301ZM52.0616 13.5768C52.5807 13.1003 52.8996 12.4546 53.0859 11.6381L49.1863 10.748C49.1507 10.9037 49.1277 10.9318 49.1504 10.8882C49.1628 10.8644 49.1862 10.8243 49.224 10.7747C49.2629 10.7238 49.308 10.6747 49.3569 10.6298L52.0616 13.5768ZM49.9683 14.2026C50.0713 14.2026 50.2931 14.196 50.5187 14.1758C50.6295 14.1658 50.79 14.1484 50.9567 14.1153C51.0386 14.0991 51.1643 14.0709 51.3057 14.0222C51.402 13.989 51.7206 13.8775 52.0306 13.6047L49.3879 10.6019C49.5491 10.4601 49.6986 10.3763 49.7851 10.3327C49.8778 10.2859 49.9552 10.2568 50.0033 10.2402C50.0962 10.2082 50.1628 10.1948 50.1783 10.1918C50.2123 10.185 50.2114 10.1873 50.1606 10.1918C50.0631 10.2006 49.9612 10.2026 49.9683 10.2026V14.2026ZM47.9083 13.6046C48.2174 13.8766 48.5347 13.9882 48.6315 14.0217C48.7729 14.0705 48.8987 14.0987 48.9806 14.1151C49.1474 14.1482 49.3077 14.1657 49.4183 14.1757C49.6436 14.196 49.8651 14.2026 49.9683 14.2026V10.2026C49.9756 10.2026 49.8745 10.2006 49.7778 10.1919C49.7274 10.1873 49.727 10.1852 49.7615 10.192C49.7773 10.1952 49.8441 10.2086 49.9371 10.2407C49.9853 10.2574 50.0626 10.2865 50.1552 10.3334C50.2416 10.3771 50.3906 10.4607 50.551 10.602L47.9083 13.6046ZM46.8512 11.6301C47.0373 12.461 47.3626 13.1043 47.8774 13.5768L50.582 10.6298C50.6287 10.6727 50.6729 10.7204 50.7115 10.7707C50.7493 10.8199 50.7731 10.8603 50.7861 10.8853C50.8103 10.9316 50.7883 10.9071 50.7545 10.756L46.8512 11.6301ZM39.1429 6.20598C40.799 5.8235 42.428 5.96327 43.7337 6.70516C44.9949 7.42186 46.23 8.85623 46.8512 11.6301L50.7545 10.756C49.9369 7.1049 48.1348 4.60536 45.7098 3.2274C43.3291 1.87464 40.6225 1.759 38.2428 2.30856L39.1429 6.20598ZM34.6978 12.0465C34.6847 9.62431 36.1072 6.90967 39.1445 6.20561L38.2412 2.30893C32.9238 3.54156 30.6774 8.29288 30.6978 12.0681L34.6978 12.0465ZM40.4693 18.6434C38.4139 18.0094 37.0016 17.176 36.1026 16.1652C35.241 15.1964 34.7105 13.9084 34.6978 12.0436L30.6979 12.071C30.7163 14.7672 31.5202 17.0317 33.1136 18.8234C34.6696 20.5729 36.8327 21.7077 39.2904 22.4657L40.4693 18.6434ZM43.3718 19.0238C42.1248 18.9322 41.1296 18.8478 40.4714 18.644L39.2883 22.4651C40.4772 22.8332 41.9893 22.933 43.0788 23.013L43.3718 19.0238ZM43.6358 19.0433L43.3725 19.0238L43.0781 23.013L43.3414 23.0324L43.6358 19.0433ZM47.751 20.2026C47.3605 19.8216 46.9119 19.6205 46.598 19.5076C46.2637 19.3874 45.9174 19.3102 45.6061 19.2558C44.9905 19.148 44.2773 19.0911 43.6372 19.0434L43.3399 23.0323C44.0073 23.082 44.5264 23.1276 44.9166 23.1959C45.1082 23.2294 45.2082 23.2586 45.2445 23.2717C45.3013 23.2921 45.1479 23.2512 44.9579 23.0659L47.751 20.2026ZM48.8554 23.0875C48.8541 22.8 48.9071 21.3265 47.7486 20.2002L44.9604 23.0683C44.9214 23.0304 44.8908 22.9871 44.8702 22.9476C44.8509 22.9109 44.8453 22.8872 44.8452 22.8868C44.8451 22.8864 44.846 22.8904 44.8474 22.8996C44.8487 22.9088 44.8502 22.9219 44.8515 22.9399C44.8543 22.9801 44.8551 23.0214 44.8554 23.1057L48.8554 23.0875ZM48.8556 23.1266L48.8554 23.0856L44.8554 23.1076L44.8557 23.1486L48.8556 23.1266ZM48.8556 25.1722V23.1376H44.8556V25.1722H48.8556ZM21.2163 33.9479C22.7868 32.2466 26.1025 30.6322 30.8227 29.3946C35.446 28.1824 41.0865 27.4147 46.939 27.1705L46.7723 23.174C40.7037 23.4272 34.7694 24.2246 29.8082 25.5254C24.944 26.8007 20.6658 28.6471 18.2772 31.2347L21.2163 33.9479ZM5.96545 73.5516C6.45474 70.9534 8.55134 62.8639 11.4369 54.4312C12.876 50.2256 14.4969 45.9779 16.1928 42.3157C17.9088 38.61 19.6277 35.6693 21.2165 33.9477L18.277 31.2349C16.2478 33.4338 14.3176 36.8461 12.5631 40.6348C10.7884 44.4671 9.11721 48.8553 7.65236 53.1361C4.73006 61.6762 2.57127 69.9613 2.03455 72.8114L5.96545 73.5516ZM11.3745 71.1815H4V75.1815H11.3745V71.1815ZM22.428 71.1815H11.3745V75.1815H22.428V71.1815ZM29.7574 74.3366C26.119 74.4557 24.5764 72.8931 24.1542 72.1715L20.7018 74.1915C21.9404 76.3086 24.9384 78.4965 29.8883 78.3345L29.7574 74.3366ZM31.3226 74.2142C30.8636 74.275 30.3441 74.3174 29.7574 74.3366L29.8883 78.3345C30.5888 78.3115 31.241 78.2599 31.8473 78.1797L31.3226 74.2142ZM33.5547 76.5436L33.5548 76.543L29.6151 75.8509L29.615 75.8515L33.5547 76.5436ZM32.6299 73.953C32.268 74.0565 31.8359 74.1468 31.3221 74.2148L31.8475 78.1802C32.5257 78.0903 33.1527 77.9638 33.7298 77.7988L32.6299 73.953ZM34.4189 72.6921C34.3387 72.9145 34.2112 73.115 33.983 73.3077C33.7418 73.5114 33.3312 73.7527 32.6308 73.9527L33.729 77.799C36.0085 77.1481 37.5236 75.8734 38.1816 74.0494L34.4189 72.6921ZM34.4477 72.605C34.4388 72.6348 34.4293 72.6635 34.4193 72.691L38.1812 74.0505C38.2164 73.9531 38.2486 73.8555 38.278 73.758L34.4477 72.605ZM63.6384 71.1815H36.3628V75.1815H63.6384V71.1815ZM67.6085 74.0159C66.7619 73.805 66.2849 73.5319 66.0166 73.3048C65.7668 73.0934 65.6329 72.8686 65.5537 72.6054L61.7232 73.7576C62.3453 75.8256 64.0193 77.2441 66.6417 77.8973L67.6085 74.0159ZM68.6802 74.2147C68.2743 74.1609 67.9189 74.0932 67.6085 74.0159L66.6417 77.8973C67.1141 78.015 67.6182 78.1089 68.1548 78.18L68.6802 74.2147ZM66.4419 76.5089C66.4449 76.5282 66.4477 76.5439 66.4495 76.5537C66.4504 76.5586 66.4511 76.5626 66.4516 76.5651C66.4518 76.5663 66.452 76.5673 66.4521 76.568C66.4522 76.5683 66.4522 76.5685 66.4523 76.5687C66.4523 76.5688 66.4523 76.5688 66.4523 76.5689C66.4523 76.5689 66.4523 76.5689 66.4523 76.5689C66.4523 76.5689 66.4523 76.5689 66.4523 76.5689C66.4524 76.5693 66.452 76.5674 66.4516 76.5652C66.4511 76.5628 66.4504 76.5588 66.4495 76.5539C66.4478 76.5441 66.445 76.5285 66.442 76.5093L70.393 75.8854C70.39 75.8661 70.3872 75.8504 70.3854 75.8407C70.3845 75.8357 70.3838 75.8317 70.3833 75.8292C70.3831 75.828 70.3829 75.827 70.3828 75.8263C70.3827 75.826 70.3827 75.8258 70.3826 75.8256C70.3826 75.8255 70.3826 75.8255 70.3826 75.8254C70.3826 75.8254 70.3826 75.8254 70.3826 75.8254C70.3826 75.8254 70.3826 75.8254 70.3826 75.8254C70.3825 75.825 70.3829 75.8269 70.3833 75.8291C70.3838 75.8315 70.3845 75.8355 70.3854 75.8404C70.3871 75.8502 70.3899 75.8658 70.3929 75.885L66.4419 76.5089ZM70.2447 74.3366C69.6581 74.3174 69.1387 74.2749 68.6797 74.2142L68.1551 78.1797C68.7613 78.2599 69.4134 78.3115 70.1138 78.3344L70.2447 74.3366ZM75.8479 72.1715C75.4257 72.8931 73.8831 74.4557 70.2447 74.3366L70.1138 78.3344C75.0636 78.4965 78.0616 76.3086 79.3003 74.1915L75.8479 72.1715ZM88.8359 71.1815H77.5741V75.1815H88.8359V71.1815ZM96 71.1815H88.8359V75.1815H96V71.1815ZM79.2311 33.9843C81.42 36.2394 83.4811 39.7753 85.3424 43.9768C87.1885 48.1444 88.7727 52.8147 90.0667 57.2137C91.359 61.607 92.352 65.6956 93.022 68.6874C93.3568 70.1823 93.6104 71.4007 93.7799 72.2433C93.8646 72.6646 93.9283 72.9917 93.9705 73.2123C93.9917 73.3226 94.0074 73.4062 94.0178 73.4616C94.023 73.4893 94.0268 73.51 94.0293 73.5234C94.0306 73.5301 94.0315 73.535 94.032 73.538C94.0323 73.5396 94.0325 73.5406 94.0326 73.5413C94.0327 73.5416 94.0327 73.5417 94.0327 73.5418C94.0327 73.5418 94.0327 73.5417 96 73.1815C97.9673 72.8213 97.9672 72.821 97.9671 72.8205C97.9671 72.8202 97.967 72.8196 97.9669 72.819C97.9666 72.8177 97.9663 72.816 97.9659 72.8138C97.9651 72.8095 97.964 72.8033 97.9625 72.7952C97.9595 72.7792 97.9552 72.7559 97.9495 72.7255C97.9381 72.6647 97.9213 72.5755 97.8991 72.4595C97.8546 72.2276 97.7886 71.8885 97.7013 71.4546C97.5268 70.587 97.2672 69.3398 96.9254 67.8133C96.2421 64.7623 95.2278 60.5848 93.9041 56.0849C92.5821 51.5906 90.9415 46.7405 88.9996 42.3567C87.0727 38.0068 84.7822 33.9603 82.1014 31.1983L79.2311 33.9843ZM53.0286 27.1078C58.7401 27.2298 64.2965 27.8669 68.9641 29.0492C73.6915 30.2466 77.247 31.939 79.2307 33.9839L82.1018 31.1987C79.3447 28.3567 74.9217 26.4319 69.9462 25.1716C64.911 23.8963 59.0404 23.2353 53.114 23.1087L53.0286 27.1078ZM51.0713 23.1376V25.1082H55.0713V23.1376H51.0713ZM51.0713 23.1143L51.0713 23.1391L55.0713 23.1361L55.0713 23.1112L51.0713 23.1143ZM51.0713 23.1125V23.1127H55.0713V23.1125H51.0713ZM51.0713 23.1123V23.1125H55.0713V23.1123H51.0713ZM51.0713 23.1121V23.1123H55.0713V23.1121H51.0713ZM51.0725 22.9388C51.0711 23.0111 51.0712 23.0754 51.0713 23.1144L55.0713 23.1099C55.0712 23.068 55.0712 23.0409 55.0718 23.0134L51.0725 22.9388ZM52.1808 20.2002C51.1437 21.2084 51.0811 22.4714 51.0724 22.939L55.0718 23.0131C55.0726 22.9666 55.0747 22.9364 55.0773 22.915C55.0798 22.8936 55.0819 22.8889 55.0797 22.8966C55.0772 22.9051 55.069 22.9299 55.0498 22.9637C55.0296 22.9992 55.0021 23.0361 54.969 23.0683L52.1808 20.2002ZM56.5582 19.0238C55.8789 19.0737 55.1082 19.1287 54.4528 19.2341C54.1208 19.2875 53.7529 19.3634 53.4006 19.4834C53.0739 19.5947 52.5921 19.7989 52.1783 20.2026L54.9714 23.0659C54.7716 23.2609 54.6114 23.2967 54.6907 23.2696C54.7446 23.2513 54.8674 23.2188 55.0878 23.1834C55.537 23.1111 56.1172 23.0669 56.8511 23.0131L56.5582 19.0238ZM56.4566 19.0339L56.4566 19.0339L56.9527 23.003L56.9528 23.003L56.4566 19.0339ZM59.4573 18.6442C58.8005 18.8478 57.8058 18.9322 56.5582 19.0238L56.8512 23.013C57.9407 22.933 59.4534 22.8332 60.6417 22.4649L59.4573 18.6442ZM65.2292 12.0447C65.2174 13.9092 64.6874 15.1969 63.8263 16.1653C62.9277 17.176 61.5155 18.0094 59.46 18.6434L60.639 22.4657C63.0965 21.7077 65.2598 20.5729 66.8156 18.8232C68.4088 17.0313 69.2121 14.7664 69.2291 12.0699L65.2292 12.0447ZM60.7934 6.20591C63.8319 6.9081 65.2517 9.62299 65.2292 12.0387L69.229 12.0759C69.2642 8.2942 67.015 3.53829 61.694 2.30863L60.7934 6.20591ZM42.128 17.6196C43.1958 17.4055 44.1742 16.877 44.9404 16.104L42.0996 13.2881C41.8904 13.4991 41.6262 13.6406 41.3415 13.6977L42.128 17.6196ZM38.9486 17.303C39.9533 17.7233 41.06 17.8338 42.128 17.6196L41.3415 13.6977C41.0569 13.7548 40.7617 13.7256 40.4925 13.6129L38.9486 17.303ZM36.4883 15.2652C37.0887 16.1726 37.9442 16.8827 38.9486 17.303L40.4925 13.6129C40.223 13.5002 39.9896 13.308 39.824 13.0578L36.4883 15.2652ZM35.5687 12.2062C35.5687 13.2936 35.888 14.3581 36.4883 15.2652L39.824 13.0578C39.6583 12.8074 39.5687 12.511 39.5687 12.2062H35.5687ZM36.4883 9.14717C35.888 10.0543 35.5687 11.1188 35.5687 12.2062H39.5687C39.5687 11.9014 39.6583 11.605 39.824 11.3546L36.4883 9.14717ZM38.9486 7.10939C37.9442 7.52964 37.0887 8.2398 36.4883 9.14717L39.824 11.3546C39.9896 11.1044 40.223 10.9122 40.4925 10.7995L38.9486 7.10939ZM42.128 6.79274C41.06 6.57858 39.9533 6.68906 38.9486 7.10939L40.4925 10.7995C40.7617 10.6868 41.0569 10.6576 41.3415 10.7147L42.128 6.79274ZM44.9404 8.30833C44.1742 7.53534 43.1958 7.00687 42.128 6.79274L41.3415 10.7147C41.6262 10.7718 41.8904 10.9133 42.0996 11.1243L44.9404 8.30833ZM46.1271 10.0982C45.8523 9.42945 45.449 8.82071 44.9395 8.30736L42.1006 11.1253C42.2397 11.2654 42.351 11.4328 42.4273 11.6185L46.1271 10.0982ZM46.5431 12.2062C46.5431 11.4833 46.4019 10.767 46.1271 10.0983L42.4273 11.6185C42.5036 11.8043 42.5431 12.004 42.5431 12.2062H46.5431ZM46.1271 14.3141C46.4019 13.6454 46.5431 12.9291 46.5431 12.2062H42.5431C42.5431 12.4083 42.5036 12.6081 42.4273 12.7938L46.1271 14.3141ZM44.9395 16.105C45.449 15.5917 45.8523 14.9829 46.1271 14.3141L42.4273 12.7938C42.351 12.9795 42.2397 13.147 42.1006 13.2871L44.9395 16.105ZM59.957 17.6215C61.0255 17.4066 62.0043 16.8772 62.7706 16.1031L59.9278 13.289C59.7184 13.5006 59.4538 13.6426 59.1685 13.6999L59.957 17.6215ZM56.7753 17.3059C57.7808 17.7262 58.8884 17.8363 59.957 17.6215L59.1685 13.6999C58.8834 13.7573 58.5876 13.7281 58.3178 13.6153L56.7753 17.3059ZM54.3126 15.2673C54.9137 16.1753 55.7699 16.8857 56.7753 17.3059L58.3178 13.6153C58.0478 13.5025 57.8139 13.31 57.648 13.0594L54.3126 15.2673ZM53.3921 12.2062C53.3921 13.2944 53.7117 14.3596 54.3126 15.2673L57.648 13.0594C57.4819 12.8085 57.3921 12.5115 57.3921 12.2062H53.3921ZM54.3126 9.14504C53.7117 10.0527 53.3921 11.118 53.3921 12.2062H57.3921C57.3921 11.9009 57.4819 11.6039 57.648 11.353L54.3126 9.14504ZM56.7753 7.10643C55.7699 7.52663 54.9137 8.23711 54.3126 9.14503L57.648 11.353C57.8139 11.1023 58.0478 10.9099 58.3178 10.797L56.7753 7.10643ZM59.957 6.79092C58.8884 6.57605 57.7808 6.68614 56.7753 7.10643L58.3178 10.797C58.5876 10.6843 58.8834 10.6551 59.1685 10.7124L59.957 6.79092ZM62.7706 8.3093C62.0043 7.53522 61.0255 7.00577 59.957 6.79092L59.1685 10.7124C59.4538 10.7698 59.7184 10.9117 59.9278 11.1233L62.7706 8.3093ZM64.3703 12.2062C64.3703 10.7483 63.7971 9.34626 62.7706 8.30931L59.9278 11.1233C60.209 11.4074 60.3703 11.7965 60.3703 12.2062H64.3703ZM62.7706 16.1031C63.7971 15.0661 64.3703 13.6641 64.3703 12.2062H60.3703C60.3703 12.6158 60.209 13.005 59.9278 13.289L62.7706 16.1031ZM30.5353 24.2303C30.9969 24.0273 31.4231 23.9936 31.7213 24.0319C31.8706 24.0511 31.9592 24.0845 31.9904 24.0993C32.0321 24.119 31.9436 24.0892 31.8297 23.9415L34.9977 21.4994C34.2909 20.5825 33.1675 20.1848 32.2308 20.0645C31.2131 19.9338 30.0541 20.0723 28.9254 20.5685L30.5353 24.2303ZM29.5134 24.2479C29.6124 24.5477 29.6099 24.7911 29.6074 24.8761C29.6042 24.9868 29.5907 25.0674 29.5835 25.1054C29.5689 25.1824 29.5548 25.2142 29.562 25.195C29.5741 25.1627 29.6177 25.0643 29.706 24.9334C29.8829 24.6711 30.158 24.3961 30.5353 24.2303L28.9254 20.5685C27.7124 21.1018 26.8922 21.952 26.39 22.6964C26.1388 23.0687 25.9469 23.444 25.8177 23.7878C25.7542 23.9567 25.693 24.152 25.6536 24.3597C25.6355 24.4551 25.5325 24.9492 25.7151 25.502L29.5134 24.2479ZM28.4323 23.797C28.7196 23.801 28.9417 23.8684 29.0693 23.9163C29.2028 23.9665 29.3015 24.0216 29.3594 24.0568C29.4712 24.1248 29.5368 24.1838 29.5483 24.1941C29.5763 24.2192 29.5628 24.2104 29.5163 24.1535C29.4756 24.1038 29.4394 24.0535 29.4183 24.0211C29.4078 24.005 29.4098 24.0067 29.4198 24.0253C29.4221 24.0294 29.4688 24.1129 29.5134 24.2479L25.7151 25.502C25.8213 25.8236 25.9952 26.0949 26.0679 26.2063C26.173 26.3674 26.295 26.533 26.4195 26.6852C26.5381 26.8303 26.6966 27.0096 26.8784 27.1726C26.9668 27.2519 27.1048 27.3673 27.2812 27.4746C27.4044 27.5495 27.8092 27.7886 28.3762 27.7966L28.4323 23.797ZM27.4599 24.0305C27.3585 24.1137 27.351 24.1185 27.364 24.1092C27.372 24.1035 27.4432 24.0518 27.5551 23.9954C27.6142 23.9657 27.7126 23.9202 27.842 23.8805C27.9678 23.842 28.1734 23.7934 28.4323 23.797L28.3762 27.7966C28.8778 27.8036 29.2454 27.6228 29.3559 27.5672C29.5086 27.4902 29.6273 27.4082 29.6894 27.3638C29.8106 27.2772 29.9378 27.1715 29.9974 27.1226L27.4599 24.0305ZM27.3144 24.1623L27.3144 24.1623L30.1429 26.9907L30.1429 26.9907L27.3144 24.1623ZM30.3584 22.5644C28.8597 22.8545 27.8457 23.7138 27.4599 24.0305L29.9974 27.1225C30.3705 26.8163 30.7011 26.5723 31.1185 26.4915L30.3584 22.5644ZM32.6971 22.5547C32.2518 22.4874 31.4279 22.3574 30.3584 22.5644L31.1185 26.4915C31.4789 26.4217 31.7315 26.4542 32.0999 26.5099L32.6971 22.5547ZM31.9317 22.938C32.1024 22.795 32.2911 22.6992 32.472 22.6434C32.6412 22.5911 32.7742 22.5829 32.8355 22.5817C32.8939 22.5805 32.9194 22.5854 32.8837 22.5813C32.8467 22.577 32.7982 22.57 32.6971 22.5547L32.0999 26.5099C32.2287 26.5293 32.5744 26.5878 32.9164 26.5809C33.3245 26.5726 33.9399 26.4739 34.5008 26.0039L31.9317 22.938ZM31.8151 23.9223C31.6643 23.7217 31.6031 23.5484 31.5836 23.4889C31.5593 23.4149 31.5524 23.3685 31.5513 23.3612C31.5494 23.3482 31.5537 23.3769 31.5497 23.4285C31.5456 23.4826 31.5381 23.4898 31.552 23.4491C31.5599 23.4261 31.5823 23.366 31.6311 23.2848C31.6787 23.2053 31.7715 23.0723 31.9317 22.938L34.5008 26.0039C34.9946 25.5901 35.2246 25.0699 35.3346 24.7499C35.4565 24.3955 35.5147 24.04 35.5381 23.7338C35.5617 23.4252 35.5554 23.0961 35.5087 22.779C35.4739 22.5423 35.3771 22.0039 35.0124 21.5187L31.8151 23.9223ZM66.5435 23.0059C66.4297 23.1536 66.3412 23.1833 66.3828 23.1636C66.4141 23.1488 66.5027 23.1154 66.6519 23.0963C66.9501 23.058 67.3763 23.0917 67.838 23.2946L69.4478 19.6329C68.3191 19.1367 67.1601 18.9982 66.1425 19.1288C65.2058 19.2491 64.0823 19.6469 63.3755 20.5638L66.5435 23.0059ZM66.4187 21.9814C66.5909 22.121 66.6901 22.2616 66.7402 22.3442C66.7916 22.429 66.8151 22.4918 66.8232 22.5154C66.8377 22.5572 66.8298 22.5496 66.8254 22.4932C66.8211 22.4395 66.8254 22.4086 66.8237 22.4199C66.8228 22.4263 66.8162 22.4725 66.7921 22.5468C66.773 22.6059 66.7117 22.7825 66.5581 22.9867L63.3608 20.583C62.9923 21.0733 62.8977 21.6186 62.8642 21.8526C62.8187 22.17 62.8134 22.4994 62.8377 22.8076C62.8618 23.113 62.9205 23.469 63.0431 23.8233C63.1522 24.1387 63.3865 24.6728 63.9004 25.0893L66.4187 21.9814ZM65.6785 21.614C65.5786 21.6287 65.5296 21.6356 65.4917 21.6399C65.4551 21.644 65.4777 21.6396 65.5322 21.6405C65.589 21.6416 65.7166 21.6487 65.8807 21.6973C66.056 21.7493 66.2445 21.8403 66.4187 21.9814L63.9004 25.0893C64.4616 25.5439 65.069 25.6329 65.4604 25.6399C65.7937 25.6459 66.1312 25.5904 66.2604 25.5714L65.6785 21.614ZM68.0181 21.6289C66.9491 21.4216 66.1251 21.5483 65.6785 21.614L66.2604 25.5714C66.6307 25.517 66.8893 25.4845 67.2566 25.5557L68.0181 21.6289ZM70.9133 23.0948C70.5281 22.7785 69.5147 21.9191 68.0181 21.6289L67.2566 25.5557C67.6718 25.6362 68.0017 25.8797 68.3752 26.1863L70.9133 23.0948ZM69.9409 22.8614C70.2001 22.8577 70.4058 22.9065 70.5316 22.945C70.6611 22.9847 70.7595 23.0302 70.8185 23.06C70.9303 23.1164 71.0016 23.1681 71.0095 23.1737C71.0224 23.183 71.0149 23.1781 70.9134 23.0948L68.3752 26.1863C68.4349 26.2353 68.5621 26.3411 68.6834 26.4278C68.7454 26.4722 68.8642 26.5542 69.0169 26.6313C69.1273 26.687 69.4951 26.868 69.997 26.861L69.9409 22.8614ZM68.8561 23.3318C68.9018 23.1883 68.9517 23.0988 68.9547 23.0932C68.966 23.0722 68.9691 23.0688 68.9592 23.084C68.9392 23.1146 68.9036 23.1639 68.8628 23.2135C68.8164 23.2699 68.8025 23.2791 68.8299 23.2547C68.8412 23.2446 68.9062 23.1864 69.0172 23.1192C69.0747 23.0844 69.1729 23.0298 69.3057 22.9801C69.4323 22.9326 69.654 22.8654 69.9409 22.8614L69.997 26.861C70.5628 26.853 70.967 26.6148 71.0891 26.5408C71.265 26.4343 71.4028 26.3197 71.4914 26.2407C71.6735 26.0784 71.8327 25.8996 71.9524 25.754C72.0778 25.6016 72.2012 25.435 72.3076 25.2721C72.3796 25.162 72.5603 24.8819 72.6671 24.5468L68.8561 23.3318ZM67.838 23.2946C68.2152 23.4605 68.4905 23.7355 68.668 23.9984C68.7566 24.1297 68.8008 24.2289 68.8135 24.2625C68.821 24.2823 68.8074 24.252 68.7928 24.1769C68.7857 24.1399 68.7722 24.0609 68.7683 23.9522C68.7654 23.8693 68.7613 23.6291 68.8561 23.3318L72.6671 24.5468C72.8417 23.9991 72.7383 23.5114 72.72 23.4169C72.6802 23.2112 72.619 23.0173 72.5555 22.8491C72.4261 22.5066 72.2343 22.1321 71.9831 21.76C71.4809 21.0163 70.6609 20.1662 69.4478 19.6329L67.838 23.2946Z" fill="white" mask="url(#path-1-outside-1_18_614)"/>
<path d="M19.7467 32.5913C12.5108 40.4323 5.02601 67.7333 4 73.1815C35.6068 73.1815 66.3625 73.1815 96 73.1815C96 73.1815 90.4057 42.6256 80.6663 32.5913C70.2086 21.8113 28.2421 23.3883 19.7467 32.5913Z" fill="white"/>
<path d="M19.7467 32.5913C12.5108 40.4323 5.02601 67.7333 4 73.1815H11.3745C16.5045 68.4272 29.381 59.9193 49.9987 59.9193C70.6165 59.9193 82.2566 68.4635 88.8359 73.1815H96C96 73.1815 90.4057 42.6256 80.6663 32.5913C70.2086 21.8113 28.2421 23.3883 19.7467 32.5913Z" fill="#4C98FF"/>
<path d="M61.2437 4.25727C57.2078 3.32524 52.5749 4.76807 51.1361 11.1931C51.009 11.7499 50.8411 11.9823 50.7092 12.1033C50.6157 12.1856 50.0642 12.2026 49.9683 12.2026C49.8724 12.2026 49.3232 12.1856 49.2297 12.1033C49.0978 11.9823 48.9275 11.7499 48.8028 11.1931C47.364 4.76807 42.7287 3.32524 38.6928 4.25727C34.5155 5.22562 32.681 8.95859 32.6978 12.0573C32.729 16.6182 35.3668 19.1626 39.8798 20.5546C41.9206 21.1864 45.5727 20.8717 46.3545 21.6343C46.8724 22.1378 46.8532 22.8229 46.8556 23.1376C46.8556 23.6218 46.8556 25.2317 46.8556 25.2317H53.0713C53.0713 25.2317 53.0713 23.6218 53.0713 23.1376C53.0713 22.8229 53.0569 22.1378 53.5749 21.6343C54.3566 20.8717 58.0112 21.1864 60.0495 20.5546C64.5625 19.1626 67.2004 16.6182 67.2291 12.0573C67.2579 8.95859 65.4234 5.2232 61.2437 4.25727ZM43.52 14.6961C43.0323 15.1881 42.411 15.5231 41.7347 15.6587C41.0584 15.7943 40.3575 15.7244 39.7205 15.4579C39.0836 15.1915 38.5392 14.7403 38.1562 14.1615C37.7731 13.5827 37.5687 12.9023 37.5687 12.2062C37.5687 11.5101 37.7731 10.8297 38.1562 10.2509C38.5392 9.67208 39.0836 9.22092 39.7205 8.95443C40.3575 8.68794 41.0584 8.61808 41.7347 8.7537C42.411 8.88931 43.0323 9.22431 43.52 9.71633C43.8443 10.0431 44.1016 10.4311 44.2772 10.8584C44.4528 11.2856 44.5431 11.7436 44.5431 12.2062C44.5431 12.6687 44.4528 13.1267 44.2772 13.554C44.1016 13.9812 43.8443 14.3693 43.52 14.6961ZM61.3492 14.6961C60.8613 15.1889 60.2396 15.5246 59.5628 15.6607C58.8859 15.7968 58.1842 15.7272 57.5465 15.4606C56.9089 15.1941 56.3638 14.7427 55.9803 14.1634C55.5968 13.5841 55.3921 12.9029 55.3921 12.2062C55.3921 11.5094 55.5968 10.8283 55.9803 10.249C56.3638 9.66973 56.9089 9.21826 57.5465 8.95173C58.1842 8.6852 58.8859 8.61558 59.5628 8.75168C60.2396 8.88778 60.8613 9.22348 61.3492 9.71633C62.003 10.3768 62.3703 11.2724 62.3703 12.2062C62.3703 13.14 62.003 14.0355 61.3492 14.6961Z" fill="#092A75"/>
<path fill-rule="evenodd" clip-rule="evenodd" d="M49.2297 12.1033C49.0978 11.9823 48.9275 11.7499 48.8028 11.1931C47.364 4.76807 42.7287 3.32524 38.6928 4.25727C34.5155 5.22562 32.681 8.95859 32.6978 12.0573C32.729 16.6182 35.3668 19.1626 39.8798 20.5546C40.8034 20.8405 42.057 20.9326 43.2253 21.0184C44.6384 21.1222 45.9265 21.2168 46.3545 21.6343C46.851 22.1169 46.8539 22.7664 46.8554 23.0966C46.8555 23.1109 46.8555 23.1246 46.8556 23.1376V25.2317H53.0713V23.1376C53.0713 23.1296 53.0713 23.1213 53.0713 23.1127C53.0709 22.788 53.0702 22.1249 53.5749 21.6343C54.0028 21.2168 55.2915 21.1222 56.7046 21.0184C57.8732 20.9326 59.1269 20.8405 60.0495 20.5546C64.5625 19.1626 67.2004 16.6182 67.2291 12.0573C67.2579 8.95859 65.4234 5.2232 61.2437 4.25727C57.2078 3.32524 52.5749 4.76807 51.1361 11.1931C51.009 11.7499 50.8411 11.9823 50.7092 12.1033C50.6157 12.1856 50.0642 12.2026 49.9683 12.2026C49.8724 12.2026 49.3232 12.1856 49.2297 12.1033ZM60.7973 6.21505C63.8433 6.91913 65.2556 9.63534 65.2333 12.0385L65.2333 12.0446C65.2215 13.9038 64.6934 15.1878 63.8335 16.1548C62.9352 17.1652 61.5221 17.9994 59.4646 18.6341L59.462 18.6349C58.7692 18.8496 57.7475 18.926 56.4926 19.0198C56.3937 19.0272 56.2934 19.0347 56.1916 19.0423C55.5673 19.0895 54.8762 19.1473 54.2767 19.2557C53.9736 19.3105 53.6364 19.3879 53.31 19.5078C53.0031 19.6204 52.5691 19.819 52.1882 20.1895C51.048 21.298 51.0698 22.755 51.0749 23.0935C51.0752 23.1114 51.0754 23.1262 51.0754 23.1376V23.223H48.8516V23.1376L48.8515 23.1222C48.8514 23.1115 48.8516 23.0964 48.8519 23.0774C48.8565 22.7554 48.8775 21.2942 47.7412 20.1895C47.3604 19.8191 46.9265 19.6205 46.6197 19.5079C46.2933 19.388 45.9561 19.3105 45.6531 19.2557C45.0538 19.1473 44.3628 19.0895 43.7387 19.0423C43.6366 19.0346 43.5359 19.0271 43.4367 19.0197C42.1826 18.926 41.1608 18.8496 40.4668 18.6347L40.4647 18.6341C38.4073 17.9995 36.9941 17.1652 36.0953 16.1547C35.2353 15.1876 34.7067 13.9037 34.6937 12.045C34.6812 9.63572 36.0963 6.9208 39.1401 6.21484C40.7993 5.83188 42.4321 5.97198 43.7404 6.7154C45.0033 7.43299 46.2358 8.86633 46.8557 11.6347C47.0426 12.469 47.3693 13.1144 47.8848 13.5875L47.9001 13.6016L47.9158 13.6153C48.2244 13.8869 48.5406 13.998 48.6366 14.0311C48.7772 14.0797 48.9022 14.1078 48.9838 14.124C49.1498 14.1571 49.3095 14.1745 49.4198 14.1844C49.6446 14.2047 49.8655 14.2112 49.9683 14.2112C50.0708 14.2112 50.2922 14.2047 50.5173 14.1845C50.6277 14.1746 50.7876 14.1572 50.9535 14.1243C51.035 14.1081 51.1601 14.0801 51.3007 14.0317C51.3961 13.9988 51.7136 13.8878 52.0232 13.6153L52.0388 13.6016L52.0541 13.5875C52.574 13.1104 52.8942 12.4625 53.0814 11.6428L53.0832 11.6347C53.7032 8.86599 54.9353 7.43272 56.1976 6.71527C57.5053 5.97194 59.1379 5.8319 60.7973 6.21505ZM43.52 14.6961C43.0323 15.1881 42.411 15.5231 41.7347 15.6587C41.0584 15.7943 40.3575 15.7244 39.7205 15.4579C39.0836 15.1915 38.5392 14.7403 38.1562 14.1615C37.7731 13.5827 37.5687 12.9023 37.5687 12.2062C37.5687 11.5101 37.7731 10.8297 38.1562 10.2509C38.5392 9.67208 39.0836 9.22092 39.7205 8.95443C40.3575 8.68794 41.0584 8.61808 41.7347 8.7537C42.411 8.88931 43.0323 9.22431 43.52 9.71633C43.8443 10.0431 44.1016 10.4311 44.2772 10.8584C44.4528 11.2856 44.5431 11.7436 44.5431 12.2062C44.5431 12.6687 44.4528 13.1267 44.2772 13.554C44.1016 13.9812 43.8443 14.3693 43.52 14.6961ZM44.9321 16.1157C44.1657 16.8884 43.1889 17.4152 42.1248 17.6286C41.0601 17.8421 39.9567 17.7321 38.9544 17.3127C37.9521 16.8934 37.0964 16.1839 36.4949 15.2749C35.8934 14.366 35.5728 13.2981 35.5728 12.2062C35.5728 11.1143 35.8934 10.0464 36.4949 9.13747C37.0964 8.22848 37.9521 7.51898 38.9544 7.09965C39.9567 6.68029 41.0601 6.57026 42.1248 6.78376C43.1889 6.99715 44.1657 7.52398 44.9321 8.29671M44.9321 8.29671C45.4414 8.81011 45.8462 9.42045 46.1216 10.0908C46.3973 10.7615 46.539 11.4804 46.539 12.2062C46.539 12.932 46.3973 13.6508 46.1216 14.3216C45.8462 14.9919 45.4414 15.6023 44.9321 16.1157M62.7632 16.1137C61.9967 16.8881 61.0191 17.4162 59.9538 17.6304C58.8885 17.8446 57.7842 17.735 56.781 17.3157C55.7778 16.8964 54.9214 16.1866 54.3193 15.277C53.7172 14.3676 53.3962 13.2989 53.3962 12.2062C53.3962 11.1135 53.7172 10.0448 54.3193 9.13534C54.9214 8.22578 55.7778 7.51598 56.781 7.09668C57.7842 6.67736 58.8885 6.56774 59.9538 6.78194C61.0191 6.99613 61.9967 7.52431 62.7632 8.29867C63.7904 9.3363 64.3663 10.7419 64.3663 12.2062C64.3663 13.6705 63.7904 15.0761 62.7632 16.1137ZM59.5628 15.6607C60.2396 15.5246 60.8613 15.1889 61.3492 14.6961C62.003 14.0355 62.3703 13.14 62.3703 12.2062C62.3703 11.2724 62.003 10.3768 61.3492 9.71633C60.8613 9.22348 60.2396 8.88778 59.5628 8.75168C58.8859 8.61558 58.1842 8.6852 57.5465 8.95173C56.9089 9.21826 56.3638 9.66973 55.9803 10.249C55.5968 10.8283 55.3921 11.5094 55.3921 12.2062C55.3921 12.9029 55.5968 13.584 55.9803 14.1634C56.3638 14.7427 56.9089 15.1941 57.5465 15.4606C58.1842 15.7272 58.8859 15.7968 59.5628 15.6607Z" fill="#092A75"/>
<path fill-rule="evenodd" clip-rule="evenodd" d="M50.0115 27.2137C50.2871 27.2137 50.5105 27.4386 50.5105 27.7159L50.5105 54.3368C50.5105 54.6141 50.2871 54.839 50.0115 54.839C49.7359 54.839 49.5125 54.6141 49.5125 54.3368L49.5125 27.7159C49.5125 27.4386 49.7359 27.2137 50.0115 27.2137Z" fill="#8EBEFF"/>
<path d="M34.947 41.7523C27.8179 39.0946 21.0788 42.2838 18.1592 47.9535C17.9084 48.4372 17.4042 48.7578 16.3595 48.8872C15.7104 48.9687 14.3508 49.0925 13.3201 49.1824C13.2214 49.1919 13.128 49.2315 13.0522 49.296C12.9764 49.3604 12.9218 49.4466 12.8958 49.5432C12.8698 49.6397 12.8735 49.7419 12.9065 49.8362C12.9395 49.9306 13.0002 50.0125 13.0805 50.0711C13.8776 50.6093 14.6064 51.244 15.2507 51.961C16.326 53.2069 16.365 53.775 16.8191 55.9292C18.0143 61.6861 22.2767 67.6989 29.9128 67.6989C38.9336 67.6989 45.8565 58.6431 42.2544 49.0475C41.6253 47.3739 40.6473 45.8563 39.3865 44.5977C38.1257 43.339 36.6117 42.3686 34.947 41.7523Z" fill="white"/>
<path d="M32.3132 63.3866C37.3618 63.3866 41.4544 59.268 41.4544 54.1874C41.4544 49.1068 37.3618 44.9882 32.3132 44.9882C27.2647 44.9882 23.172 49.1068 23.172 54.1874C23.172 59.268 27.2647 63.3866 32.3132 63.3866Z" fill="#092A75"/>
<path fill-rule="evenodd" clip-rule="evenodd" d="M32.3132 61.3779C36.2595 61.3779 39.4585 58.1585 39.4585 54.1874C39.4585 50.2162 36.2595 46.9968 32.3132 46.9968C28.3669 46.9968 25.1679 50.2162 25.1679 54.1874C25.1679 58.1585 28.3669 61.3779 32.3132 61.3779ZM41.4544 54.1874C41.4544 59.268 37.3618 63.3866 32.3132 63.3866C27.2647 63.3866 23.172 59.268 23.172 54.1874C23.172 49.1068 27.2647 44.9882 32.3132 44.9882C37.3618 44.9882 41.4544 49.1068 41.4544 54.1874Z" fill="#092A75"/>
<path d="M34.9254 52.8735C36.3678 52.8735 37.5372 51.6968 37.5372 50.2452C37.5372 48.7936 36.3678 47.6168 34.9254 47.6168C33.483 47.6168 32.3136 48.7936 32.3136 50.2452C32.3136 51.6968 33.483 52.8735 34.9254 52.8735Z" fill="white"/>
<path d="M50.0002 62.1958C51.6161 62.1958 53.7682 61.5018 53.5297 60.6706C53.2911 59.8394 50.6619 57.9672 50.0002 57.9672C49.3384 57.9672 46.7143 59.8394 46.4732 60.6706C46.2321 61.5018 48.3765 62.1958 50.0002 62.1958Z" fill="#0D3C8D"/>
<path d="M62.0785 50.9626C65.383 48.8267 70.041 47.4688 74.7162 48.3099C75.2622 48.4104 77.0765 48.686 78.1287 48.8181C78.7913 48.8985 80.1791 49.0276 81.2284 49.1052C81.3293 49.1143 81.4251 49.1544 81.5028 49.22C81.5806 49.2856 81.6367 49.3735 81.6636 49.4722C81.6905 49.5708 81.6869 49.6754 81.6534 49.7719C81.6198 49.8684 81.5579 49.9523 81.4758 50.0124C80.4947 50.7243 78.7799 51.4679 78.1657 52.1799C77.068 53.4517 75.6916 55.1799 73.5133 56.1618C70.4989 57.5226 67.5215 57.2728 63.9838 57.3273C58.865 57.4077 57.6735 59.0499 57.318 58.1685C56.7322 56.6957 58.9987 52.9636 62.0785 50.9626Z" fill="white"/>
<path fill-rule="evenodd" clip-rule="evenodd" d="M67.4015 51.6932C70.3698 51.3048 73.2014 51.6527 74.5011 51.8395C74.7739 51.8788 74.9635 52.1331 74.9245 52.4077C74.8855 52.6822 74.6328 52.873 74.36 52.8338C73.0832 52.6503 70.3605 52.3188 67.5301 52.6891C64.6914 53.0606 61.8436 54.1238 60.1829 56.6385C60.0304 56.8695 59.7207 56.9323 59.4912 56.7788C59.2617 56.6253 59.1993 56.3136 59.3518 56.0826C61.2458 53.2145 64.4414 52.0805 67.4015 51.6932Z" fill="#092A75"/>
<path d="M33.4137 22.7205C32.9007 22.055 31.3207 21.7002 29.7304 22.3994C28.1401 23.0985 27.5398 24.6496 27.6142 24.8749C27.6886 25.1002 28.2196 25.7942 28.4043 25.7968C28.5889 25.7994 29.3738 24.792 30.7384 24.5279C32.103 24.2638 32.8238 24.7998 33.2162 24.4709C33.6087 24.1421 33.6318 23.0105 33.4137 22.7205Z" fill="#092A75"/>
<path d="M64.9595 21.7848C65.4725 21.1193 67.0525 20.7645 68.6428 21.4637C70.2332 22.1629 70.8334 23.714 70.7616 23.9392C70.6897 24.1645 70.1536 24.8585 69.969 24.8611C69.7843 24.8637 68.9994 23.8564 67.6374 23.5923C66.2753 23.3281 65.5494 23.8512 65.1595 23.5353C64.7696 23.2194 64.7414 22.0748 64.9595 21.7848Z" fill="#092A75"/>
<path d="M16.5001 72.0731C18.0058 70.0248 20.9684 67.8393 25.8984 67.4638C31.5722 67.034 36.415 69.0667 36.5356 71.5293C36.6561 73.9919 35.4377 76.1516 29.8229 76.3354C24.208 76.5193 22.0534 73.2565 22.0534 72.0731H16.5001Z" fill="white"/>
<path d="M31.5849 76.1975C35.6889 75.6537 36.6431 73.7142 36.5354 71.5364C36.4148 69.0738 31.572 67.0411 25.8982 67.4709C20.9682 67.8464 18.0056 70.0319 16.4999 72.0802H18.7007C18.7007 72.0802 22.7099 70.1226 25.5365 70.2468C29.3533 70.41 32.1209 73.2015 31.5849 76.1975Z" fill="#4C98FF"/>
<path d="M83.502 72.0731C81.9964 70.0248 79.0337 67.8393 74.1037 67.4638C68.4273 67.034 63.5871 69.0667 63.4666 71.5293C63.346 73.9919 64.5644 76.1516 70.1792 76.3354C75.7941 76.5193 77.9487 73.2565 77.9487 72.0731H83.502Z" fill="white"/>
<path d="M68.4175 76.1974C64.3134 75.6536 63.3567 73.714 63.467 71.5363C63.5875 69.0737 68.4277 67.0409 74.1042 67.4708C79.0342 67.8463 81.9968 70.0318 83.5025 72.0801H81.3017C81.3017 72.0801 77.2899 70.1224 74.4658 70.2467C70.6491 70.4099 67.8711 73.2013 68.4175 76.1974Z" fill="#4C98FF"/>
</g>
<defs>
<clipPath id="clip0_18_614">
<rect width="100" height="72" fill="white"/>
</clipPath>
</defs>
</svg>
