<svg width="60" height="60" viewBox="0 0 60 60" fill="none" xmlns="http://www.w3.org/2000/svg">
  <path d="M20 7.5H15C10.75 7.5 7.5 10.75 7.5 15V20C7.5 24.25 10.75 27.5 15 27.5H20C24.25 27.5 27.5 24.25 27.5 20V15C27.5 10.75 24.25 7.5 20 7.5Z" fill="#1273EA" />
  <path d="M45 7.5H40C35.75 7.5 32.5 10.75 32.5 15V20C32.5 24.25 35.75 27.5 40 27.5H45C49.25 27.5 52.5 24.25 52.5 20V15C52.5 10.75 49.25 7.5 45 7.5Z" fill="#1273EA" />
  <path d="M20 32.5H15C10.75 32.5 7.5 35.75 7.5 40V45C7.5 49.25 10.75 52.5 15 52.5H20C24.25 52.5 27.5 49.25 27.5 45V40C27.5 35.75 24.25 32.5 20 32.5Z" fill="#1273EA" />
  <path d="M45 32.5H40C35.75 32.5 32.5 35.75 32.5 40V45C32.5 49.25 35.75 52.5 40 52.5H45C49.25 52.5 52.5 49.25 52.5 45V40C52.5 35.75 49.25 32.5 45 32.5Z" fill="#1273EA" />
</svg>