<svg width="60" height="60" viewBox="0 0 60 60" fill="none" xmlns="http://www.w3.org/2000/svg">
  <path d="M42.25 17.5H17.75C10.75 17.5 5 23.25 5 30.25C5 37.25 10.75 43 17.75 43H42.5C49.5 43 55.25 37.25 55.25 30.25C55 23.25 49.25 17.5 42.25 17.5ZM41.25 24C42.5 24 43.25 25 43.25 26C43.25 27.25 42.25 28 41.25 28C40.25 28 39.25 27 39.25 26C39.25 24.75 40 24 41.25 24ZM24.5 32H20.5V35.75H17V32H13V28.25H16.75V24.5H20.5V28.25H24.25V32H24.5ZM37 32.25C35.75 32.25 35 31.25 35 30.25C35 29 36 28.25 37 28.25C38.25 28.25 39 29.25 39 30.25C39.25 31.25 38.25 32.25 37 32.25ZM41.25 36.5C40 36.5 39.25 35.5 39.25 34.5C39.25 33.25 40.25 32.5 41.25 32.5C42.25 32.5 43.25 33.5 43.25 34.5C43.25 35.5 42.5 36.5 41.25 36.5ZM45.5 32.25C44.25 32.25 43.5 31.25 43.5 30.25C43.5 29 44.5 28.25 45.5 28.25C46.75 28.25 47.5 29.25 47.5 30.25C47.5 31.25 46.5 32.25 45.5 32.25Z" fill="#1273EA" />
</svg>