<svg width="50" height="50" viewBox="0 0 50 50" fill="none" xmlns="http://www.w3.org/2000/svg">
  <path fill-rule="evenodd" clip-rule="evenodd" d="M23.9847 0.215471C24.6311 -0.0718237 25.3689 -0.0718237 26.0153 0.215471L48.5154 10.2155C49.4182 10.6167 50 11.512 50 12.5V37.5C50 38.488 49.4182 39.3833 48.5154 39.7845L26.0284 49.7787C25.9279 49.8241 25.8249 49.8625 25.7203 49.894C25.1945 50.0523 24.6328 50.0323 24.1224 49.841C24.0716 49.8219 24.0213 49.8012 23.9716 49.7787L1.48465 39.7845C0.581834 39.3833 0 38.488 0 37.5V12.5C0 11.512 0.581834 10.6167 1.48465 10.2155L23.9847 0.215471ZM27.5 24.1247V43.6531L45 35.8753V16.3469L27.5 24.1247ZM8.65554 12.5L25 19.7642L41.3445 12.5L25 5.23579L8.65554 12.5Z" fill="#1273EA" />
</svg>