<svg width="16" height="17" viewBox="0 0 16 17" fill="none" xmlns="http://www.w3.org/2000/svg">
<path fill-rule="evenodd" clip-rule="evenodd" d="M9.33334 2.5H14V7.16667H12.6667V4.77614L8.47141 8.9714C8.21107 9.23175 7.78896 9.23175 7.52861 8.9714C7.26826 8.71105 7.26826 8.28894 7.52861 8.02859L11.7239 3.83333H9.33334V2.5Z" fill="#1273EA"/>
<path d="M14 3.16667V6.5C14 6.868 13.702 7.16667 13.3333 7.16667C12.9647 7.16667 12.6667 6.868 12.6667 6.5V4.77604L7.80469 9.63802C7.67469 9.76802 7.504 9.83333 7.33333 9.83333C7.16267 9.83333 6.99198 9.76802 6.86198 9.63802C6.60131 9.37735 6.60131 8.95598 6.86198 8.69531L11.724 3.83333H10C9.63133 3.83333 9.33333 3.53467 9.33333 3.16667C9.33333 2.79867 9.63133 2.5 10 2.5H13.3333C13.42 2.5 13.5067 2.51794 13.5881 2.55127C13.7514 2.6186 13.8814 2.74861 13.9487 2.91195C13.9827 2.99328 14 3.08 14 3.16667ZM13.3333 8.5C12.9647 8.5 12.6667 8.79867 12.6667 9.16667V11.8333C12.6667 12.7927 12.2927 13.1667 11.3333 13.1667H4.66667C3.70733 13.1667 3.33333 12.7927 3.33333 11.8333V5.16667C3.33333 4.20733 3.70733 3.83333 4.66667 3.83333H7.33333C7.702 3.83333 8 3.53467 8 3.16667C8 2.79867 7.702 2.5 7.33333 2.5H4.66667C2.972 2.5 2 3.472 2 5.16667V11.8333C2 13.528 2.972 14.5 4.66667 14.5H11.3333C13.028 14.5 14 13.528 14 11.8333V9.16667C14 8.79867 13.702 8.5 13.3333 8.5Z" fill="#1273EA"/>
</svg>
