<?xml version="1.0" encoding="utf-8"?>
<!-- Generator: Adobe Illustrator 28.0.0, SVG Export Plug-In . SVG Version: 6.00 Build 0)  -->
<svg version="1.1" id="Layer_1" xmlns="http://www.w3.org/2000/svg" xmlns:xlink="http://www.w3.org/1999/xlink" x="0px" y="0px"
	 viewBox="0 0 60 60" style="enable-background:new 0 0 60 60;" xml:space="preserve">
<style type="text/css">
	.st0{clip-path:url(#SVGID_00000054238086523805602530000002643870770829044142_);}
	.st1{fill:#FFFFFF;}
	.st2{fill:#0666DC;}
</style>
<g>
	<defs>
		<rect id="SVGID_1_" width="60" height="60"/>
	</defs>
	<clipPath id="SVGID_00000069396615753710209210000003633096627819642776_">
		<use xlink:href="#SVGID_1_"  style="overflow:visible;"/>
	</clipPath>
	<g style="clip-path:url(#SVGID_00000069396615753710209210000003633096627819642776_);">
		<rect class="st1" width="60" height="60"/>
		<path class="st2" d="M11.5,6h11.1c3.1,0,5.5,2.5,5.5,5.5v11.1c0,3.1-2.5,5.5-5.5,5.5H11.5c-3.1,0-5.5-2.5-5.5-5.5V11.5
			C6,8.5,8.5,6,11.5,6z"/>
		<path class="st2" d="M37.4,6h11.1c3.1,0,5.5,2.5,5.5,5.5v11.1c0,3.1-2.5,5.5-5.5,5.5H37.4c-3.1,0-5.5-2.5-5.5-5.5V11.5
			C31.8,8.5,34.3,6,37.4,6z"/>
		<path class="st2" d="M22.6,31.8H11.5c-3.1,0-5.5,2.5-5.5,5.5v11.1c0,3.1,2.5,5.5,5.5,5.5h11.1c3.1,0,5.5-2.5,5.5-5.5V37.4
			C28.2,34.3,25.7,31.8,22.6,31.8z"/>
		<path class="st2" d="M54,42.9C54,49,49,54,42.9,54s-11.1-5-11.1-11.1s5-11.1,11.1-11.1S54,36.8,54,42.9z"/>
	</g>
</g>
</svg>
