<?xml version="1.0" encoding="utf-8"?>
<!-- Generator: Adobe Illustrator 28.0.0, SVG Export Plug-In . SVG Version: 6.00 Build 0)  -->
<svg version="1.1" id="Layer_1" xmlns="http://www.w3.org/2000/svg" xmlns:xlink="http://www.w3.org/1999/xlink" x="0px" y="0px"
	 viewBox="0 0 60 60" style="enable-background:new 0 0 60 60;" xml:space="preserve">
<style type="text/css">
	.st0{fill:#0666DC;}
</style>
<g>
	<g>
		<defs>
			<rect id="SVGID_1_" width="60" height="60"/>
		</defs>
		<clipPath id="SVGID_00000047022560175602539310000010852408744474301320_">
			<use xlink:href="#SVGID_1_"  style="overflow:visible;"/>
		</clipPath>
	</g>
	<path class="st0" d="M11.6,6.1h11.1c3.1,0,5.5,2.5,5.5,5.5v11.1c0,3.1-2.5,5.5-5.5,5.5H11.6c-3.1,0-5.5-2.5-5.5-5.5V11.6
		C6.1,8.6,8.6,6.1,11.6,6.1z"/>
	<path class="st0" d="M37.5,6.1h11.1c3.1,0,5.5,2.5,5.5,5.5v11.1c0,3.1-2.5,5.5-5.5,5.5H37.5c-3.1,0-5.5-2.5-5.5-5.5V11.6
		C31.9,8.6,34.4,6.1,37.5,6.1z"/>
	<path class="st0" d="M22.7,31.9H11.6c-3.1,0-5.5,2.5-5.5,5.5v11.1c0,3.1,2.5,5.5,5.5,5.5h11.1c3.1,0,5.5-2.5,5.5-5.5v-11
		C28.3,34.4,25.8,31.9,22.7,31.9z"/>
	<path class="st0" d="M54.1,43c0,6.1-5,11.1-11.1,11.1s-11.1-5-11.1-11.1s5-11.1,11.1-11.1S54.1,36.9,54.1,43z"/>
</g>
</svg>
