<svg width="24" height="24" viewBox="0 0 24 24" fill="none" xmlns="http://www.w3.org/2000/svg">
<path d="M3 4C2.44772 4 2 4.44772 2 5V7C2 7.55228 2.44772 8 3 8H5C5.55228 8 6 7.55228 6 7V5C6 4.44772 5.55228 4 5 4H3Z" fill="currentColor"/>
<path d="M3 10C2.44772 10 2 10.4477 2 11V13C2 13.5523 2.44772 14 3 14H5C5.55228 14 6 13.5523 6 13V11C6 10.4477 5.55228 10 5 10H3Z" fill="currentColor"/>
<path d="M2 17C2 16.4477 2.44772 16 3 16H5C5.55228 16 6 16.4477 6 17V19C6 19.5523 5.55228 20 5 20H3C2.44772 20 2 19.5523 2 19V17Z" fill="currentColor"/>
<path d="M9 4C8.44772 4 8 4.44772 8 5V7C8 7.55228 8.44772 8 9 8H21C21.5523 8 22 7.55228 22 7V5C22 4.44772 21.5523 4 21 4H9Z" fill="currentColor"/>
<path d="M8 11C8 10.4477 8.44772 10 9 10H21C21.5523 10 22 10.4477 22 11V13C22 13.5523 21.5523 14 21 14H9C8.44772 14 8 13.5523 8 13V11Z" fill="currentColor"/>
<path d="M9 16C8.44772 16 8 16.4477 8 17V19C8 19.5523 8.44772 20 9 20H21C21.5523 20 22 19.5523 22 19V17C22 16.4477 21.5523 16 21 16H9Z" fill="currentColor"/>
</svg>
