<svg width="24" height="24" viewBox="0 0 24 24" fill="none" xmlns="http://www.w3.org/2000/svg">
<path d="M19.799 6.90088L17.113 8.90088C17.027 8.96488 16.922 9 16.814 9H7.50001C6.50001 9 6.00001 8.5 6.00001 7.5V5.5C6.00001 4.5 6.50001 4 7.50001 4H11.25V3C11.25 2.59 11.59 2.25 12 2.25C12.41 2.25 12.75 2.59 12.75 3V4H16.814C16.922 4 17.026 4.03512 17.113 4.09912L19.799 6.09912C20.067 6.29912 20.067 6.70088 19.799 6.90088ZM16.5 12H12.75V10.5H11.25V12H7.18602C7.07802 12 6.97401 12.0351 6.88701 12.0991L4.20102 14.0991C3.93202 14.2991 3.93202 14.7009 4.20102 14.9009L6.88701 16.9009C6.97301 16.9649 7.07802 17 7.18602 17H11.25V20.25H9.00001C8.58601 20.25 8.25001 20.586 8.25001 21C8.25001 21.414 8.58601 21.75 9.00001 21.75H15C15.414 21.75 15.75 21.414 15.75 21C15.75 20.586 15.414 20.25 15 20.25H12.75V17H16.5C17.5 17 18 16.5 18 15.5V13.5C18 12.5 17.5 12 16.5 12Z" fill="currentColor"/>
</svg>
